<?xml version="1.0" encoding="UTF-8" standalone="no"?>
<!DOCTYPE svg PUBLIC "-//W3C//DTD SVG 1.1//EN"
 "http://www.w3.org/Graphics/SVG/1.1/DTD/svg11.dtd">
<!-- Generated by graphviz version 2.40.1 (20161225.0304)
 -->
<!-- Title: dependencies Pages: 1 -->
<svg width="504pt" height="211pt"
 viewBox="0.00 0.00 504.00 211.00" xmlns="http://www.w3.org/2000/svg" xmlns:xlink="http://www.w3.org/1999/xlink">
<g id="graph0" class="graph" transform="scale(1 1) rotate(0) translate(4 207)">
<title>dependencies</title>
<polygon fill="#ffffff" stroke="transparent" points="-4,4 -4,-207 500,-207 500,4 -4,4"/>
<text text-anchor="start" x="227.0091" y="-42.4" font-family="sans-serif" font-weight="bold" font-size="14.00" fill="#000000">Legend</text>
<polygon fill="#ffffb3" stroke="transparent" points="14,-10 14,-30 34,-30 34,-10 14,-10"/>
<text text-anchor="start" x="37.629" y="-15.4" font-family="sans-serif" font-size="14.00" fill="#000000"> &#160;Declarations</text>
<polygon fill="#8dd3c7" stroke="transparent" points="127,-10 127,-30 147,-30 147,-10 127,-10"/>
<text text-anchor="start" x="150.7251" y="-15.4" font-family="sans-serif" font-size="14.00" fill="#000000"> &#160;Module</text>
<polygon fill="#80b1d3" stroke="transparent" points="213,-10 213,-30 233,-30 233,-10 213,-10"/>
<text text-anchor="start" x="236.7812" y="-15.4" font-family="sans-serif" font-size="14.00" fill="#000000"> &#160;Bootstrap</text>
<polygon fill="#fdb462" stroke="transparent" points="310,-10 310,-30 330,-30 330,-10 310,-10"/>
<text text-anchor="start" x="333.6732" y="-15.4" font-family="sans-serif" font-size="14.00" fill="#000000"> &#160;Providers</text>
<polygon fill="#fb8072" stroke="transparent" points="406,-10 406,-30 426,-30 426,-10 406,-10"/>
<text text-anchor="start" x="429.7258" y="-15.4" font-family="sans-serif" font-size="14.00" fill="#000000"> &#160;Exports</text>
<g id="clust1" class="cluster">
<title>cluster_FeedModule</title>
<polygon fill="none" stroke="#000000" stroke-dasharray="1,5" points="42,-70 42,-195 454,-195 454,-70 42,-70"/>
</g>
<g id="clust2" class="cluster">
<title>cluster_FeedModule_declarations</title>
<polygon fill="none" stroke="#000000" points="322,-78 322,-130 446,-130 446,-78 322,-78"/>
</g>
<g id="clust4" class="cluster">
<title>cluster_FeedModule_imports</title>
<polygon fill="none" stroke="#000000" points="50,-78 50,-130 314,-130 314,-78 50,-78"/>
</g>
<!-- FeedComponent -->
<g id="node1" class="node">
<title>FeedComponent</title>
<polygon fill="#ffffb3" stroke="#000000" points="438.0452,-122 329.9548,-122 329.9548,-86 438.0452,-86 438.0452,-122"/>
<text text-anchor="middle" x="384" y="-99.8" font-family="Times,serif" font-size="14.00" fill="#000000">FeedComponent</text>
</g>
<!-- FeedModule -->
<g id="node2" class="node">
<title>FeedModule</title>
<polygon fill="#8dd3c7" stroke="#000000" points="283.2619,-187 280.2619,-191 259.2619,-191 256.2619,-187 196.7381,-187 196.7381,-151 283.2619,-151 283.2619,-187"/>
<text text-anchor="middle" x="240" y="-164.8" font-family="Times,serif" font-size="14.00" fill="#000000">FeedModule</text>
</g>
<!-- FeedComponent&#45;&gt;FeedModule -->
<g id="edge1" class="edge">
<title>FeedComponent&#45;&gt;FeedModule</title>
<path fill="none" stroke="#000000" d="M384,-122.1061C384,-141.3391 384,-169 384,-169 384,-169 293.5955,-169 293.5955,-169"/>
<polygon fill="#000000" stroke="#000000" points="293.5956,-165.5001 283.5955,-169 293.5955,-172.5001 293.5956,-165.5001"/>
</g>
<!-- FeedRoutingModule -->
<g id="node3" class="node">
<title>FeedRoutingModule</title>
<polygon fill="#8dd3c7" stroke="#000000" points="305.8795,-122 302.8795,-126 281.8795,-126 278.8795,-122 174.1205,-122 174.1205,-86 305.8795,-86 305.8795,-122"/>
<text text-anchor="middle" x="240" y="-99.8" font-family="Times,serif" font-size="14.00" fill="#000000">FeedRoutingModule</text>
</g>
<!-- FeedRoutingModule&#45;&gt;FeedModule -->
<g id="edge2" class="edge">
<title>FeedRoutingModule&#45;&gt;FeedModule</title>
<path fill="none" stroke="#000000" d="M240,-122.1061C240,-122.1061 240,-140.991 240,-140.991"/>
<polygon fill="#000000" stroke="#000000" points="236.5001,-140.9909 240,-150.991 243.5001,-140.991 236.5001,-140.9909"/>
</g>
<!-- SharedModule -->
<g id="node4" class="node">
<title>SharedModule</title>
<polygon fill="#8dd3c7" stroke="#000000" points="156.4231,-122 153.4231,-126 132.4231,-126 129.4231,-122 57.5769,-122 57.5769,-86 156.4231,-86 156.4231,-122"/>
<text text-anchor="middle" x="107" y="-99.8" font-family="Times,serif" font-size="14.00" fill="#000000">SharedModule</text>
</g>
<!-- SharedModule&#45;&gt;FeedModule -->
<g id="edge3" class="edge">
<title>SharedModule&#45;&gt;FeedModule</title>
<path fill="none" stroke="#000000" d="M107,-122.1061C107,-141.3391 107,-169 107,-169 107,-169 186.4508,-169 186.4508,-169"/>
<polygon fill="#000000" stroke="#000000" points="186.4509,-172.5001 196.4508,-169 186.4508,-165.5001 186.4509,-172.5001"/>
</g>
</g>
</svg>
