<?xml version="1.0" encoding="UTF-8" standalone="no"?>
<!DOCTYPE svg PUBLIC "-//W3C//DTD SVG 1.1//EN"
 "http://www.w3.org/Graphics/SVG/1.1/DTD/svg11.dtd">
<!-- Generated by graphviz version 2.40.1 (20161225.0304)
 -->
<!-- Title: dependencies Pages: 1 -->
<svg width="1219pt" height="211pt"
 viewBox="0.00 0.00 1219.00 211.00" xmlns="http://www.w3.org/2000/svg" xmlns:xlink="http://www.w3.org/1999/xlink">
<g id="graph0" class="graph" transform="scale(1 1) rotate(0) translate(4 207)">
<title>dependencies</title>
<polygon fill="#ffffff" stroke="transparent" points="-4,4 -4,-207 1215,-207 1215,4 -4,4"/>
<text text-anchor="start" x="584.5091" y="-42.4" font-family="sans-serif" font-weight="bold" font-size="14.00" fill="#000000">Legend</text>
<polygon fill="#ffffb3" stroke="transparent" points="371.5,-10 371.5,-30 391.5,-30 391.5,-10 371.5,-10"/>
<text text-anchor="start" x="395.129" y="-15.4" font-family="sans-serif" font-size="14.00" fill="#000000"> &#160;Declarations</text>
<polygon fill="#8dd3c7" stroke="transparent" points="484.5,-10 484.5,-30 504.5,-30 504.5,-10 484.5,-10"/>
<text text-anchor="start" x="508.2251" y="-15.4" font-family="sans-serif" font-size="14.00" fill="#000000"> &#160;Module</text>
<polygon fill="#80b1d3" stroke="transparent" points="570.5,-10 570.5,-30 590.5,-30 590.5,-10 570.5,-10"/>
<text text-anchor="start" x="594.2812" y="-15.4" font-family="sans-serif" font-size="14.00" fill="#000000"> &#160;Bootstrap</text>
<polygon fill="#fdb462" stroke="transparent" points="667.5,-10 667.5,-30 687.5,-30 687.5,-10 667.5,-10"/>
<text text-anchor="start" x="691.1732" y="-15.4" font-family="sans-serif" font-size="14.00" fill="#000000"> &#160;Providers</text>
<polygon fill="#fb8072" stroke="transparent" points="763.5,-10 763.5,-30 783.5,-30 783.5,-10 763.5,-10"/>
<text text-anchor="start" x="787.2258" y="-15.4" font-family="sans-serif" font-size="14.00" fill="#000000"> &#160;Exports</text>
<g id="clust1" class="cluster">
<title>cluster_MemeModule</title>
<polygon fill="none" stroke="#000000" stroke-dasharray="1,5" points="8,-70 8,-195 1203,-195 1203,-70 8,-70"/>
</g>
<g id="clust2" class="cluster">
<title>cluster_MemeModule_declarations</title>
<polygon fill="none" stroke="#000000" points="296,-78 296,-130 1195,-130 1195,-78 296,-78"/>
</g>
<g id="clust9" class="cluster">
<title>cluster_MemeModule_imports</title>
<polygon fill="none" stroke="#000000" points="16,-78 16,-130 288,-130 288,-78 16,-78"/>
</g>
<!-- CardsComponent -->
<g id="node1" class="node">
<title>CardsComponent</title>
<polygon fill="#ffffb3" stroke="#000000" points="1186.9888,-122 1073.0112,-122 1073.0112,-86 1186.9888,-86 1186.9888,-122"/>
<text text-anchor="middle" x="1130" y="-99.8" font-family="Times,serif" font-size="14.00" fill="#000000">CardsComponent</text>
</g>
<!-- MemeModule -->
<g id="node7" class="node">
<title>MemeModule</title>
<polygon fill="#8dd3c7" stroke="#000000" points="649.8147,-187 646.8147,-191 625.8147,-191 622.8147,-187 554.1853,-187 554.1853,-151 649.8147,-151 649.8147,-187"/>
<text text-anchor="middle" x="602" y="-164.8" font-family="Times,serif" font-size="14.00" fill="#000000">MemeModule</text>
</g>
<!-- CardsComponent&#45;&gt;MemeModule -->
<g id="edge1" class="edge">
<title>CardsComponent&#45;&gt;MemeModule</title>
<path fill="none" stroke="#000000" d="M1130,-122.2921C1130,-144.2057 1130,-178 1130,-178 1130,-178 659.7877,-178 659.7877,-178"/>
<polygon fill="#000000" stroke="#000000" points="659.7878,-174.5001 649.7877,-178 659.7877,-181.5001 659.7878,-174.5001"/>
</g>
<!-- MemeComponent -->
<g id="node2" class="node">
<title>MemeComponent</title>
<polygon fill="#ffffb3" stroke="#000000" points="1054.5968,-122 937.4032,-122 937.4032,-86 1054.5968,-86 1054.5968,-122"/>
<text text-anchor="middle" x="996" y="-99.8" font-family="Times,serif" font-size="14.00" fill="#000000">MemeComponent</text>
</g>
<!-- MemeComponent&#45;&gt;MemeModule -->
<g id="edge2" class="edge">
<title>MemeComponent&#45;&gt;MemeModule</title>
<path fill="none" stroke="#000000" d="M996,-122.1061C996,-141.3391 996,-169 996,-169 996,-169 659.9182,-169 659.9182,-169"/>
<polygon fill="#000000" stroke="#000000" points="659.9183,-165.5001 649.9182,-169 659.9182,-172.5001 659.9183,-165.5001"/>
</g>
<!-- MemeDetailComponent -->
<g id="node3" class="node">
<title>MemeDetailComponent</title>
<polygon fill="#ffffb3" stroke="#000000" points="919.8047,-122 768.1953,-122 768.1953,-86 919.8047,-86 919.8047,-122"/>
<text text-anchor="middle" x="844" y="-99.8" font-family="Times,serif" font-size="14.00" fill="#000000">MemeDetailComponent</text>
</g>
<!-- MemeDetailComponent&#45;&gt;MemeModule -->
<g id="edge3" class="edge">
<title>MemeDetailComponent&#45;&gt;MemeModule</title>
<path fill="none" stroke="#000000" d="M844,-122.027C844,-138.3976 844,-160 844,-160 844,-160 659.8114,-160 659.8114,-160"/>
<polygon fill="#000000" stroke="#000000" points="659.8114,-156.5001 649.8114,-160 659.8114,-163.5001 659.8114,-156.5001"/>
</g>
<!-- MemeItemComponent -->
<g id="node4" class="node">
<title>MemeItemComponent</title>
<polygon fill="#ffffb3" stroke="#000000" points="750.2534,-122 607.7466,-122 607.7466,-86 750.2534,-86 750.2534,-122"/>
<text text-anchor="middle" x="679" y="-99.8" font-family="Times,serif" font-size="14.00" fill="#000000">MemeItemComponent</text>
</g>
<!-- MemeItemComponent&#45;&gt;MemeModule -->
<g id="edge4" class="edge">
<title>MemeItemComponent&#45;&gt;MemeModule</title>
<path fill="none" stroke="#000000" d="M628.6402,-122.1061C628.6402,-122.1061 628.6402,-140.991 628.6402,-140.991"/>
<polygon fill="#000000" stroke="#000000" points="625.1403,-140.9909 628.6402,-150.991 632.1403,-140.991 625.1403,-140.9909"/>
</g>
<!-- MemeItemDirective -->
<g id="node5" class="node">
<title>MemeItemDirective</title>
<polygon fill="#ffffb3" stroke="#000000" points="589.5045,-122 460.4955,-122 460.4955,-86 589.5045,-86 589.5045,-122"/>
<text text-anchor="middle" x="525" y="-99.8" font-family="Times,serif" font-size="14.00" fill="#000000">MemeItemDirective</text>
</g>
<!-- MemeItemDirective&#45;&gt;MemeModule -->
<g id="edge5" class="edge">
<title>MemeItemDirective&#45;&gt;MemeModule</title>
<path fill="none" stroke="#000000" d="M572.0474,-122.1061C572.0474,-122.1061 572.0474,-140.991 572.0474,-140.991"/>
<polygon fill="#000000" stroke="#000000" points="568.5474,-140.9909 572.0474,-150.991 575.5474,-140.991 568.5474,-140.9909"/>
</g>
<!-- MemeListComponent -->
<g id="node6" class="node">
<title>MemeListComponent</title>
<polygon fill="#ffffb3" stroke="#000000" points="442.3753,-122 303.6247,-122 303.6247,-86 442.3753,-86 442.3753,-122"/>
<text text-anchor="middle" x="373" y="-99.8" font-family="Times,serif" font-size="14.00" fill="#000000">MemeListComponent</text>
</g>
<!-- MemeListComponent&#45;&gt;MemeModule -->
<g id="edge6" class="edge">
<title>MemeListComponent&#45;&gt;MemeModule</title>
<path fill="none" stroke="#000000" d="M373,-122.027C373,-138.3976 373,-160 373,-160 373,-160 544.2728,-160 544.2728,-160"/>
<polygon fill="#000000" stroke="#000000" points="544.2729,-163.5001 554.2728,-160 544.2728,-156.5001 544.2729,-163.5001"/>
</g>
<!-- MemeRoutingModule -->
<g id="node8" class="node">
<title>MemeRoutingModule</title>
<polygon fill="#8dd3c7" stroke="#000000" points="280.4327,-122 277.4327,-126 256.4327,-126 253.4327,-122 139.5673,-122 139.5673,-86 280.4327,-86 280.4327,-122"/>
<text text-anchor="middle" x="210" y="-99.8" font-family="Times,serif" font-size="14.00" fill="#000000">MemeRoutingModule</text>
</g>
<!-- MemeRoutingModule&#45;&gt;MemeModule -->
<g id="edge7" class="edge">
<title>MemeRoutingModule&#45;&gt;MemeModule</title>
<path fill="none" stroke="#000000" d="M210,-122.1061C210,-141.3391 210,-169 210,-169 210,-169 544.325,-169 544.325,-169"/>
<polygon fill="#000000" stroke="#000000" points="544.325,-172.5001 554.325,-169 544.325,-165.5001 544.325,-172.5001"/>
</g>
<!-- SharedModule -->
<g id="node9" class="node">
<title>SharedModule</title>
<polygon fill="#8dd3c7" stroke="#000000" points="122.4231,-122 119.4231,-126 98.4231,-126 95.4231,-122 23.5769,-122 23.5769,-86 122.4231,-86 122.4231,-122"/>
<text text-anchor="middle" x="73" y="-99.8" font-family="Times,serif" font-size="14.00" fill="#000000">SharedModule</text>
</g>
<!-- SharedModule&#45;&gt;MemeModule -->
<g id="edge8" class="edge">
<title>SharedModule&#45;&gt;MemeModule</title>
<path fill="none" stroke="#000000" d="M73,-122.2921C73,-144.2057 73,-178 73,-178 73,-178 544.1218,-178 544.1218,-178"/>
<polygon fill="#000000" stroke="#000000" points="544.1218,-181.5001 554.1218,-178 544.1217,-174.5001 544.1218,-181.5001"/>
</g>
</g>
</svg>
