<?xml version="1.0" encoding="UTF-8" standalone="no"?>
<!DOCTYPE svg PUBLIC "-//W3C//DTD SVG 1.1//EN"
 "http://www.w3.org/Graphics/SVG/1.1/DTD/svg11.dtd">
<!-- Generated by graphviz version 2.40.1 (20161225.0304)
 -->
<!-- Title: dependencies Pages: 1 -->
<svg width="771pt" height="211pt"
 viewBox="0.00 0.00 771.00 211.00" xmlns="http://www.w3.org/2000/svg" xmlns:xlink="http://www.w3.org/1999/xlink">
<g id="graph0" class="graph" transform="scale(1 1) rotate(0) translate(4 207)">
<title>dependencies</title>
<polygon fill="#ffffff" stroke="transparent" points="-4,4 -4,-207 767,-207 767,4 -4,4"/>
<text text-anchor="start" x="360.5091" y="-42.4" font-family="sans-serif" font-weight="bold" font-size="14.00" fill="#000000">Legend</text>
<polygon fill="#ffffb3" stroke="transparent" points="147.5,-10 147.5,-30 167.5,-30 167.5,-10 147.5,-10"/>
<text text-anchor="start" x="171.129" y="-15.4" font-family="sans-serif" font-size="14.00" fill="#000000"> &#160;Declarations</text>
<polygon fill="#8dd3c7" stroke="transparent" points="260.5,-10 260.5,-30 280.5,-30 280.5,-10 260.5,-10"/>
<text text-anchor="start" x="284.2251" y="-15.4" font-family="sans-serif" font-size="14.00" fill="#000000"> &#160;Module</text>
<polygon fill="#80b1d3" stroke="transparent" points="346.5,-10 346.5,-30 366.5,-30 366.5,-10 346.5,-10"/>
<text text-anchor="start" x="370.2812" y="-15.4" font-family="sans-serif" font-size="14.00" fill="#000000"> &#160;Bootstrap</text>
<polygon fill="#fdb462" stroke="transparent" points="443.5,-10 443.5,-30 463.5,-30 463.5,-10 443.5,-10"/>
<text text-anchor="start" x="467.1732" y="-15.4" font-family="sans-serif" font-size="14.00" fill="#000000"> &#160;Providers</text>
<polygon fill="#fb8072" stroke="transparent" points="539.5,-10 539.5,-30 559.5,-30 559.5,-10 539.5,-10"/>
<text text-anchor="start" x="563.2258" y="-15.4" font-family="sans-serif" font-size="14.00" fill="#000000"> &#160;Exports</text>
<g id="clust1" class="cluster">
<title>cluster_ManageModule</title>
<polygon fill="none" stroke="#000000" stroke-dasharray="1,5" points="8,-70 8,-195 755,-195 755,-70 8,-70"/>
</g>
<g id="clust2" class="cluster">
<title>cluster_ManageModule_declarations</title>
<polygon fill="none" stroke="#000000" points="306,-78 306,-130 747,-130 747,-78 306,-78"/>
</g>
<g id="clust6" class="cluster">
<title>cluster_ManageModule_imports</title>
<polygon fill="none" stroke="#000000" points="16,-78 16,-130 298,-130 298,-78 16,-78"/>
</g>
<!-- EditProfileComponent -->
<g id="node1" class="node">
<title>EditProfileComponent</title>
<polygon fill="#ffffb3" stroke="#000000" points="739.266,-122 596.734,-122 596.734,-86 739.266,-86 739.266,-122"/>
<text text-anchor="middle" x="668" y="-99.8" font-family="Times,serif" font-size="14.00" fill="#000000">EditProfileComponent</text>
</g>
<!-- ManageModule -->
<g id="node4" class="node">
<title>ManageModule</title>
<polygon fill="#8dd3c7" stroke="#000000" points="426.1388,-187 423.1388,-191 402.1388,-191 399.1388,-187 321.8612,-187 321.8612,-151 426.1388,-151 426.1388,-187"/>
<text text-anchor="middle" x="374" y="-164.8" font-family="Times,serif" font-size="14.00" fill="#000000">ManageModule</text>
</g>
<!-- EditProfileComponent&#45;&gt;ManageModule -->
<g id="edge1" class="edge">
<title>EditProfileComponent&#45;&gt;ManageModule</title>
<path fill="none" stroke="#000000" d="M668,-122.2843C668,-143.3211 668,-175 668,-175 668,-175 436.2225,-175 436.2225,-175"/>
<polygon fill="#000000" stroke="#000000" points="436.2226,-171.5001 426.2225,-175 436.2225,-178.5001 436.2226,-171.5001"/>
</g>
<!-- ManageComponent -->
<g id="node2" class="node">
<title>ManageComponent</title>
<polygon fill="#ffffb3" stroke="#000000" points="578.4215,-122 451.5785,-122 451.5785,-86 578.4215,-86 578.4215,-122"/>
<text text-anchor="middle" x="515" y="-99.8" font-family="Times,serif" font-size="14.00" fill="#000000">ManageComponent</text>
</g>
<!-- ManageComponent&#45;&gt;ManageModule -->
<g id="edge2" class="edge">
<title>ManageComponent&#45;&gt;ManageModule</title>
<path fill="none" stroke="#000000" d="M515,-122.0225C515,-139.3734 515,-163 515,-163 515,-163 436.5032,-163 436.5032,-163"/>
<polygon fill="#000000" stroke="#000000" points="436.5032,-159.5001 426.5032,-163 436.5032,-166.5001 436.5032,-159.5001"/>
</g>
<!-- ProfiloComponent -->
<g id="node3" class="node">
<title>ProfiloComponent</title>
<polygon fill="#ffffb3" stroke="#000000" points="434.2176,-122 313.7824,-122 313.7824,-86 434.2176,-86 434.2176,-122"/>
<text text-anchor="middle" x="374" y="-99.8" font-family="Times,serif" font-size="14.00" fill="#000000">ProfiloComponent</text>
</g>
<!-- ProfiloComponent&#45;&gt;ManageModule -->
<g id="edge3" class="edge">
<title>ProfiloComponent&#45;&gt;ManageModule</title>
<path fill="none" stroke="#000000" d="M374,-122.1061C374,-122.1061 374,-140.991 374,-140.991"/>
<polygon fill="#000000" stroke="#000000" points="370.5001,-140.9909 374,-150.991 377.5001,-140.991 370.5001,-140.9909"/>
</g>
<!-- ManageRoutingModule -->
<g id="node5" class="node">
<title>ManageRoutingModule</title>
<polygon fill="#8dd3c7" stroke="#000000" points="289.7562,-122 286.7562,-126 265.7562,-126 262.7562,-122 140.2438,-122 140.2438,-86 289.7562,-86 289.7562,-122"/>
<text text-anchor="middle" x="215" y="-99.8" font-family="Times,serif" font-size="14.00" fill="#000000">ManageRoutingModule</text>
</g>
<!-- ManageRoutingModule&#45;&gt;ManageModule -->
<g id="edge4" class="edge">
<title>ManageRoutingModule&#45;&gt;ManageModule</title>
<path fill="none" stroke="#000000" d="M215,-122.0225C215,-139.3734 215,-163 215,-163 215,-163 311.4968,-163 311.4968,-163"/>
<polygon fill="#000000" stroke="#000000" points="311.4968,-166.5001 321.4968,-163 311.4968,-159.5001 311.4968,-166.5001"/>
</g>
<!-- SharedModule -->
<g id="node6" class="node">
<title>SharedModule</title>
<polygon fill="#8dd3c7" stroke="#000000" points="122.4231,-122 119.4231,-126 98.4231,-126 95.4231,-122 23.5769,-122 23.5769,-86 122.4231,-86 122.4231,-122"/>
<text text-anchor="middle" x="73" y="-99.8" font-family="Times,serif" font-size="14.00" fill="#000000">SharedModule</text>
</g>
<!-- SharedModule&#45;&gt;ManageModule -->
<g id="edge5" class="edge">
<title>SharedModule&#45;&gt;ManageModule</title>
<path fill="none" stroke="#000000" d="M73,-122.2843C73,-143.3211 73,-175 73,-175 73,-175 311.5698,-175 311.5698,-175"/>
<polygon fill="#000000" stroke="#000000" points="311.5698,-178.5001 321.5698,-175 311.5698,-171.5001 311.5698,-178.5001"/>
</g>
</g>
</svg>
